<svg id="Layer_1" data-name="Layer 1" xmlns="http://www.w3.org/2000/svg" viewBox="0 0 121.05 121.05"><defs><style>.cls-1{fill:#fff;}</style></defs><title>Facebook</title><path class="cls-1" d="M128.41,14.48H21.59a7.14,7.14,0,0,0-7.12,7.12V128.41a7.14,7.14,0,0,0,7.12,7.12H128.41a7.14,7.14,0,0,0,7.12-7.12V21.59A7.14,7.14,0,0,0,128.41,14.48ZM89.9,55.2H82.69a3.14,3.14,0,0,0-2.87,2.61v7.46H89.88c-.4,5.72-1.23,11-1.23,11H79.77v29.94H66.54V76.22H60.11V65.31h6.44V56.39c0-1.63-.33-12.55,13.55-12.55h9.8Z" transform="translate(-14.48 -14.48)"/></svg>