<svg id="Layer_1" data-name="Layer 1" xmlns="http://www.w3.org/2000/svg" viewBox="0 0 121.05 121.05"><defs><style>.cls-1{fill:#fff;}</style></defs><title>Instagram</title><path class="cls-1" d="M89.11,50.82H61.86a11,11,0,0,0-11,11V89.07a11,11,0,0,0,11,11H89.11a11,11,0,0,0,11-11V61.82A11,11,0,0,0,89.11,50.82Zm-13.62,41A16.38,16.38,0,1,1,91.86,75.44,16.38,16.38,0,0,1,75.49,91.82ZM92.17,62.41a3.75,3.75,0,1,1,3.75-3.75A3.75,3.75,0,0,1,92.17,62.41Z" transform="translate(-14.68 -14.92)"/><path class="cls-1" d="M128.61,14.92H21.8A7.14,7.14,0,0,0,14.68,22V128.85A7.14,7.14,0,0,0,21.8,136H128.61a7.14,7.14,0,0,0,7.12-7.12V22A7.14,7.14,0,0,0,128.61,14.92Zm-22.5,74.15a17.05,17.05,0,0,1-17,17H61.86a17.05,17.05,0,0,1-17-17V61.82a17,17,0,0,1,17-17H89.11a17,17,0,0,1,17,17Z" transform="translate(-14.68 -14.92)"/><path class="cls-1" d="M75.49,65.07A10.38,10.38,0,1,0,85.86,75.44,10.39,10.39,0,0,0,75.49,65.07Z" transform="translate(-14.68 -14.92)"/></svg>