<svg id="Layer_1" data-name="Layer 1" xmlns="http://www.w3.org/2000/svg" viewBox="0 0 121.05 121.05"><defs><style>.cls-1{fill:#fff;}</style></defs><title>Podcast</title><g id="_Group_" data-name="&lt;Group&gt;"><path class="cls-1" d="M82.18,82.82a5.65,5.65,0,0,0-5.63-6.12H73.49a5.66,5.66,0,0,0-5.63,6.16l1.51,17a5.72,5.72,0,0,0,11.4,0ZM75,74.89a7.31,7.31,0,1,0-7.31-7.31A7.31,7.31,0,0,0,75,74.89Zm60.53-56.55V125.15a7.14,7.14,0,0,1-7.12,7.12H21.6a7.14,7.14,0,0,1-7.12-7.12V18.34a7.14,7.14,0,0,1,7.12-7.12H128.41A7.14,7.14,0,0,1,135.53,18.34Zm-40,76.08a30.61,30.61,0,1,0-41.12-.07,15.29,15.29,0,0,1,4.26-2.94,25.6,25.6,0,1,1,32.76-.07A15.27,15.27,0,0,1,95.53,94.42Zm-6-12.84a19,19,0,1,0-28.91.14,15.41,15.41,0,0,1,4-3.06A13.8,13.8,0,0,1,61,69.35a14,14,0,1,1,24.41,9.31A15.46,15.46,0,0,1,89.51,81.58Z" transform="translate(-14.47 -11.22)"/></g></svg>