<svg id="Layer_1" data-name="Layer 1" xmlns="http://www.w3.org/2000/svg" viewBox="0 0 121.05 121.05"><defs><style>.cls-1{fill:#fff;}</style></defs><title>RSS</title><path class="cls-1" d="M129.9,14.48H23.09A7.14,7.14,0,0,0,16,21.59V128.41a7.14,7.14,0,0,0,7.12,7.12H129.9a7.14,7.14,0,0,0,7.12-7.12V21.59A7.14,7.14,0,0,0,129.9,14.48ZM62.29,98.92h0a6.91,6.91,0,0,1-9.76,0h0a6.91,6.91,0,1,1,9.77,0ZM74.84,101v0h0A24.37,24.37,0,0,0,50.5,76.61V66.68A34.38,34.38,0,0,1,84.81,101Zm17.71,0a42.14,42.14,0,0,0-42-42.08V49a52.09,52.09,0,0,1,52,52Z" transform="translate(-15.98 -14.48)"/></svg>