<svg id="Layer_1" data-name="Layer 1" xmlns="http://www.w3.org/2000/svg" viewBox="0 0 121 121"><defs><style>.cls-1{fill:#fff;}</style></defs><title>Twitter</title><path class="cls-1" d="M135,22.12A7.12,7.12,0,0,0,127.88,15H21.12A7.12,7.12,0,0,0,14,22.12V128.88A7.12,7.12,0,0,0,21.12,136H127.88a7.12,7.12,0,0,0,7.12-7.12ZM103.73,61.28q0,.89,0,1.78c0,18.2-13.85,39.18-39.18,39.18A39,39,0,0,1,43.49,96a28,28,0,0,0,3.28.19,27.63,27.63,0,0,0,17.1-5.89A13.79,13.79,0,0,1,51,80.78a13.75,13.75,0,0,0,6.22-.24,13.78,13.78,0,0,1-11-13.5c0-.06,0-.12,0-.18a13.67,13.67,0,0,0,6.24,1.72,13.78,13.78,0,0,1-4.26-18.38A39.09,39.09,0,0,0,76.54,64.6,13.78,13.78,0,0,1,100,52a27.59,27.59,0,0,0,8.74-3.34,13.82,13.82,0,0,1-6.06,7.62,27.49,27.49,0,0,0,7.91-2.17A28,28,0,0,1,103.73,61.28Z" transform="translate(-14 -15)"/></svg>