<svg id="Layer_1" data-name="Layer 1" xmlns="http://www.w3.org/2000/svg" viewBox="0 0 121.05 121.05"><defs><style>.cls-1{fill:#fff;}</style></defs><title>YouTube</title><path class="cls-1" d="M87.5,72.9,68.62,62c-2-1.14-3.61-.2-3.61,2.08l0,21.8c0,2.28,1.63,3.21,3.61,2.06L87.51,77.05C89.49,75.91,89.48,74,87.5,72.9Z" transform="translate(-14.48 -14.48)"/><path class="cls-1" d="M128.41,14.48H21.59a7.14,7.14,0,0,0-7.12,7.12V128.41a7.14,7.14,0,0,0,7.12,7.12H128.41a7.14,7.14,0,0,0,7.12-7.12V21.59A7.14,7.14,0,0,0,128.41,14.48ZM108.8,87.83a9.83,9.83,0,0,1-9.9,9.76c-7.8.34-15.78.48-23.91.47s-16.11-.12-23.91-.47a9.83,9.83,0,0,1-9.89-9.76c-.32-4.29-.47-8.56-.46-12.84s.14-8.56.46-12.83a9.83,9.83,0,0,1,9.89-9.77c7.41-.32,15-.45,22.7-.45h2.42c7.72,0,15.29.14,22.7.45a9.84,9.84,0,0,1,9.9,9.77c.33,4.28.47,8.55.46,12.83S109.13,83.54,108.8,87.83Z" transform="translate(-14.48 -14.48)"/></svg>